c:\users\suhlr\documents\myrepositories\opencap-processing-grf\examples\GRF_tracking_data\OC_val\OpenSimData\Dynamics\walking1\GRF_walking1_no_grf_tracking.mot
version=1
nRows=5
nColumns=109
inDegrees=yes
endheader 
time	ground_force_SmoothSphereHalfSpaceForce_s1_r_vx	ground_force_SmoothSphereHalfSpaceForce_s1_r_vy	ground_force_SmoothSphereHalfSpaceForce_s1_r_vz	ground_force_SmoothSphereHalfSpaceForce_s1_r_px	ground_force_SmoothSphereHalfSpaceForce_s1_r_py	ground_force_SmoothSphereHalfSpaceForce_s1_r_pz	ground_torque_SmoothSphereHalfSpaceForce_s1_r_x	ground_torque_SmoothSphereHalfSpaceForce_s1_r_y	ground_torque_SmoothSphereHalfSpaceForce_s1_r_z	ground_force_SmoothSphereHalfSpaceForce_s2_r_vx	ground_force_SmoothSphereHalfSpaceForce_s2_r_vy	ground_force_SmoothSphereHalfSpaceForce_s2_r_vz	ground_force_SmoothSphereHalfSpaceForce_s2_r_px	ground_force_SmoothSphereHalfSpaceForce_s2_r_py	ground_force_SmoothSphereHalfSpaceForce_s2_r_pz	ground_torque_SmoothSphereHalfSpaceForce_s2_r_x	ground_torque_SmoothSphereHalfSpaceForce_s2_r_y	ground_torque_SmoothSphereHalfSpaceForce_s2_r_z	ground_force_SmoothSphereHalfSpaceForce_s3_r_vx	ground_force_SmoothSphereHalfSpaceForce_s3_r_vy	ground_force_SmoothSphereHalfSpaceForce_s3_r_vz	ground_force_SmoothSphereHalfSpaceForce_s3_r_px	ground_force_SmoothSphereHalfSpaceForce_s3_r_py	ground_force_SmoothSphereHalfSpaceForce_s3_r_pz	ground_torque_SmoothSphereHalfSpaceForce_s3_r_x	ground_torque_SmoothSphereHalfSpaceForce_s3_r_y	ground_torque_SmoothSphereHalfSpaceForce_s3_r_z	ground_force_SmoothSphereHalfSpaceForce_s4_r_vx	ground_force_SmoothSphereHalfSpaceForce_s4_r_vy	ground_force_SmoothSphereHalfSpaceForce_s4_r_vz	ground_force_SmoothSphereHalfSpaceForce_s4_r_px	ground_force_SmoothSphereHalfSpaceForce_s4_r_py	ground_force_SmoothSphereHalfSpaceForce_s4_r_pz	ground_torque_SmoothSphereHalfSpaceForce_s4_r_x	ground_torque_SmoothSphereHalfSpaceForce_s4_r_y	ground_torque_SmoothSphereHalfSpaceForce_s4_r_z	ground_force_SmoothSphereHalfSpaceForce_s5_r_vx	ground_force_SmoothSphereHalfSpaceForce_s5_r_vy	ground_force_SmoothSphereHalfSpaceForce_s5_r_vz	ground_force_SmoothSphereHalfSpaceForce_s5_r_px	ground_force_SmoothSphereHalfSpaceForce_s5_r_py	ground_force_SmoothSphereHalfSpaceForce_s5_r_pz	ground_torque_SmoothSphereHalfSpaceForce_s5_r_x	ground_torque_SmoothSphereHalfSpaceForce_s5_r_y	ground_torque_SmoothSphereHalfSpaceForce_s5_r_z	ground_force_SmoothSphereHalfSpaceForce_s6_r_vx	ground_force_SmoothSphereHalfSpaceForce_s6_r_vy	ground_force_SmoothSphereHalfSpaceForce_s6_r_vz	ground_force_SmoothSphereHalfSpaceForce_s6_r_px	ground_force_SmoothSphereHalfSpaceForce_s6_r_py	ground_force_SmoothSphereHalfSpaceForce_s6_r_pz	ground_torque_SmoothSphereHalfSpaceForce_s6_r_x	ground_torque_SmoothSphereHalfSpaceForce_s6_r_y	ground_torque_SmoothSphereHalfSpaceForce_s6_r_z	ground_force_SmoothSphereHalfSpaceForce_s1_l_vx	ground_force_SmoothSphereHalfSpaceForce_s1_l_vy	ground_force_SmoothSphereHalfSpaceForce_s1_l_vz	ground_force_SmoothSphereHalfSpaceForce_s1_l_px	ground_force_SmoothSphereHalfSpaceForce_s1_l_py	ground_force_SmoothSphereHalfSpaceForce_s1_l_pz	ground_torque_SmoothSphereHalfSpaceForce_s1_l_x	ground_torque_SmoothSphereHalfSpaceForce_s1_l_y	ground_torque_SmoothSphereHalfSpaceForce_s1_l_z	ground_force_SmoothSphereHalfSpaceForce_s2_l_vx	ground_force_SmoothSphereHalfSpaceForce_s2_l_vy	ground_force_SmoothSphereHalfSpaceForce_s2_l_vz	ground_force_SmoothSphereHalfSpaceForce_s2_l_px	ground_force_SmoothSphereHalfSpaceForce_s2_l_py	ground_force_SmoothSphereHalfSpaceForce_s2_l_pz	ground_torque_SmoothSphereHalfSpaceForce_s2_l_x	ground_torque_SmoothSphereHalfSpaceForce_s2_l_y	ground_torque_SmoothSphereHalfSpaceForce_s2_l_z	ground_force_SmoothSphereHalfSpaceForce_s3_l_vx	ground_force_SmoothSphereHalfSpaceForce_s3_l_vy	ground_force_SmoothSphereHalfSpaceForce_s3_l_vz	ground_force_SmoothSphereHalfSpaceForce_s3_l_px	ground_force_SmoothSphereHalfSpaceForce_s3_l_py	ground_force_SmoothSphereHalfSpaceForce_s3_l_pz	ground_torque_SmoothSphereHalfSpaceForce_s3_l_x	ground_torque_SmoothSphereHalfSpaceForce_s3_l_y	ground_torque_SmoothSphereHalfSpaceForce_s3_l_z	ground_force_SmoothSphereHalfSpaceForce_s4_l_vx	ground_force_SmoothSphereHalfSpaceForce_s4_l_vy	ground_force_SmoothSphereHalfSpaceForce_s4_l_vz	ground_force_SmoothSphereHalfSpaceForce_s4_l_px	ground_force_SmoothSphereHalfSpaceForce_s4_l_py	ground_force_SmoothSphereHalfSpaceForce_s4_l_pz	ground_torque_SmoothSphereHalfSpaceForce_s4_l_x	ground_torque_SmoothSphereHalfSpaceForce_s4_l_y	ground_torque_SmoothSphereHalfSpaceForce_s4_l_z	ground_force_SmoothSphereHalfSpaceForce_s5_l_vx	ground_force_SmoothSphereHalfSpaceForce_s5_l_vy	ground_force_SmoothSphereHalfSpaceForce_s5_l_vz	ground_force_SmoothSphereHalfSpaceForce_s5_l_px	ground_force_SmoothSphereHalfSpaceForce_s5_l_py	ground_force_SmoothSphereHalfSpaceForce_s5_l_pz	ground_torque_SmoothSphereHalfSpaceForce_s5_l_x	ground_torque_SmoothSphereHalfSpaceForce_s5_l_y	ground_torque_SmoothSphereHalfSpaceForce_s5_l_z	ground_force_SmoothSphereHalfSpaceForce_s6_l_vx	ground_force_SmoothSphereHalfSpaceForce_s6_l_vy	ground_force_SmoothSphereHalfSpaceForce_s6_l_vz	ground_force_SmoothSphereHalfSpaceForce_s6_l_px	ground_force_SmoothSphereHalfSpaceForce_s6_l_py	ground_force_SmoothSphereHalfSpaceForce_s6_l_pz	ground_torque_SmoothSphereHalfSpaceForce_s6_l_x	ground_torque_SmoothSphereHalfSpaceForce_s6_l_y	ground_torque_SmoothSphereHalfSpaceForce_s6_l_z	
          0.03900000	        -30.95627971	        244.37578872	        -13.15907383	          0.16796265	         -0.00672643	         -0.23796824	          0.00000000	          0.00000000	          0.00000000	         -0.00000021	          0.00000037	          0.00000017	          0.29813254	          0.01871061	         -0.24577517	          0.00000000	          0.00000000	          0.00000000	         -0.00000089	          0.00000110	          0.00000041	          0.27438122	          0.01761994	         -0.17248895	          0.00000000	          0.00000000	          0.00000000	         -0.19245179	          0.40856674	          0.06339388	          0.21979885	          0.00528132	         -0.20306394	          0.00000000	          0.00000000	          0.00000000	         -0.00000000	          0.00000000	          0.00000000	          0.34990461	          0.04382624	         -0.23226850	          0.00000000	          0.00000000	          0.00000000	         -0.00000000	         -0.00000000	          0.00000000	          0.31176307	          0.05185297	         -0.16703735	          0.00000000	          0.00000000	          0.00000000	         -0.00000000	         -0.00000000	         -0.00000000	         -0.43985529	          0.01693983	         -0.34017386	          0.00000000	          0.00000000	          0.00000000	         18.43044020	         36.74861278	         -1.01934996	         -0.30992891	         -0.00328737	         -0.30737291	          0.00000000	          0.00000000	          0.00000000	         25.01338281	         69.00145566	          0.22963939	         -0.32169061	         -0.00630123	         -0.38330105	          0.00000000	          0.00000000	          0.00000000	         -0.00001424	         -0.00007210	         -0.00001108	         -0.38179733	          0.00533839	         -0.36411016	          0.00000000	          0.00000000	          0.00000000	         42.38395063	        275.75588715	          5.41191362	         -0.23789769	         -0.00957857	         -0.31479842	          0.00000000	          0.00000000	          0.00000000	        -13.64339369	         95.61085074	          2.58449964	         -0.24722046	         -0.00651976	         -0.39123960	          0.00000000	          0.00000000	          0.00000000	
          0.05915094	        -87.62430163	        317.97065374	        -16.64156588	          0.17075274	         -0.00894300	         -0.23802256	          0.00000000	          0.00000000	          0.00000000	         -0.00064409	          0.00113041	          0.00047678	          0.30435255	          0.01129511	         -0.24832261	          0.00000000	          0.00000000	          0.00000000	         -0.00059439	          0.00073995	          0.00026030	          0.28161326	          0.01156200	         -0.17468570	          0.00000000	          0.00000000	          0.00000000	         -4.50031023	          8.26288972	          1.19973409	          0.22482120	          0.00121076	         -0.20416620	          0.00000000	          0.00000000	          0.00000000	         -0.00000000	          0.00000000	          0.00000000	          0.36352946	          0.03206662	         -0.23398458	          0.00000000	          0.00000000	          0.00000000	         -0.00000000	         -0.00000000	          0.00000000	          0.33143165	          0.04044425	         -0.16574540	          0.00000000	          0.00000000	          0.00000000	          0.00000000	         -0.00000000	         -0.00000000	         -0.43469435	          0.02433677	         -0.34200004	          0.00000000	          0.00000000	          0.00000000	          8.07489385	         12.87715708	          0.97434756	         -0.30965340	         -0.00195305	         -0.30745346	          0.00000000	          0.00000000	          0.00000000	          8.86896550	         21.69269368	          2.52969543	         -0.32086838	         -0.00439012	         -0.38354696	          0.00000000	          0.00000000	          0.00000000	         -0.00000000	         -0.00000000	         -0.00000000	         -0.37876420	          0.01004102	         -0.36516018	          0.00000000	          0.00000000	          0.00000000	        105.00309980	        310.71567601	          3.59743704	         -0.23823998	         -0.01033689	         -0.31400807	          0.00000000	          0.00000000	          0.00000000	        -10.83549679	         79.60298384	          1.12487309	         -0.24571060	         -0.00566573	         -0.39032651	          0.00000000	          0.00000000	          0.00000000	
          0.07930189	        -99.33992700	        342.41596491	        -23.27712042	          0.17349489	         -0.01039926	         -0.23802319	          0.00000000	          0.00000000	          0.00000000	         -0.19596888	          0.42152733	          0.14646624	          0.30931447	          0.00532901	         -0.25054714	          0.00000000	          0.00000000	          0.00000000	         -0.06121082	          0.08910761	          0.02603231	          0.28765738	          0.00679506	         -0.17664094	          0.00000000	          0.00000000	          0.00000000	        -22.41551980	         45.37213277	          4.91353213	          0.22923401	         -0.00184237	         -0.20512463	          0.00000000	          0.00000000	          0.00000000	         -0.00000000	          0.00000001	          0.00000001	          0.37333516	          0.02208431	         -0.23616690	          0.00000000	          0.00000000	          0.00000000	         -0.00000000	          0.00000000	          0.00000000	          0.34580923	          0.03042141	         -0.16593950	          0.00000000	          0.00000000	          0.00000000	          0.00000000	         -0.00000000	         -0.00000000	         -0.42594496	          0.03386055	         -0.34486871	          0.00000000	          0.00000000	          0.00000000	          0.18049360	          0.34790917	          0.08103227	         -0.30854908	          0.00046256	         -0.30812869	          0.00000000	          0.00000000	          0.00000000	         -0.00675512	         -0.02949153	         -0.00823198	         -0.31887054	         -0.00133255	         -0.38441979	          0.00000000	          0.00000000	          0.00000000	          0.00000000	         -0.00000000	         -0.00000000	         -0.37332447	          0.01638770	         -0.36704819	          0.00000000	          0.00000000	          0.00000000	        137.20068325	        304.88516653	         11.08228463	         -0.23863930	         -0.01092538	         -0.31341057	          0.00000000	          0.00000000	          0.00000000	        -10.57565569	         65.02030666	          2.07357386	         -0.24332450	         -0.00485369	         -0.38955636	          0.00000000	          0.00000000	          0.00000000	
          0.09945283	        -62.85312073	        337.47105629	        -24.01622162	          0.17568926	         -0.01123653	         -0.23792413	          0.00000000	          0.00000000	          0.00000000	         -2.93904186	         10.56395193	          2.86418608	          0.31282920	          0.00079747	         -0.25230087	          0.00000000	          0.00000000	          0.00000000	         -0.93976177	          1.97953519	          0.45261088	          0.29221849	          0.00322998	         -0.17819767	          0.00000000	          0.00000000	          0.00000000	        -34.01312861	        101.31887989	          7.67064812	          0.23263513	         -0.00399610	         -0.20583801	          0.00000000	          0.00000000	          0.00000000	          0.00000401	          0.00005411	          0.00004865	          0.37983396	          0.01412109	         -0.23819969	          0.00000000	          0.00000000	          0.00000000	         -0.00000000	          0.00000001	          0.00000001	          0.35565500	          0.02220460	         -0.16663435	          0.00000000	          0.00000000	          0.00000000	          0.00000000	         -0.00000000	         -0.00000000	         -0.41196072	          0.04528489	         -0.34849000	          0.00000000	          0.00000000	          0.00000000	         -0.00000000	         -0.00000005	         -0.00000002	         -0.30522988	          0.00443488	         -0.30941365	          0.00000000	          0.00000000	          0.00000000	          0.00000000	         -0.00000000	         -0.00000000	         -0.31431633	          0.00330707	         -0.38591269	          0.00000000	          0.00000000	          0.00000000	          0.00000000	         -0.00000000	         -0.00000000	         -0.36396335	          0.02447822	         -0.36962361	          0.00000000	          0.00000000	          0.00000000	        103.37370833	        243.47507781	          9.61362320	         -0.23833443	         -0.01094519	         -0.31322652	          0.00000000	          0.00000000	          0.00000000	        -10.64481844	         55.94962916	          2.16454662	         -0.23954510	         -0.00414706	         -0.38926118	          0.00000000	          0.00000000	          0.00000000	
          0.11960377	         -2.74564498	        320.55324480	        -18.19313987	          0.17695952	         -0.01161844	         -0.23775982	          0.00000000	          0.00000000	          0.00000000	         -3.10845739	         62.05323717	         12.63426376	          0.31481685	         -0.00241375	         -0.25356412	          0.00000000	          0.00000000	          0.00000000	         -1.75907998	          8.42073149	          1.43963623	          0.29511835	          0.00068915	         -0.17931312	          0.00000000	          0.00000000	          0.00000000	        -15.22346393	        134.58376460	          7.37362103	          0.23474285	         -0.00542316	         -0.20630179	          0.00000000	          0.00000000	          0.00000000	          0.00631605	          0.02582376	          0.01714624	          0.38355063	          0.00813707	         -0.23979149	          0.00000000	          0.00000000	          0.00000000	         -0.00000028	          0.00000731	          0.00000406	          0.36174446	          0.01580506	         -0.16728706	          0.00000000	          0.00000000	          0.00000000	          0.00000000	         -0.00000000	         -0.00000000	         -0.39109776	          0.05792945	         -0.35225576	          0.00000000	          0.00000000	          0.00000000	          0.00000000	         -0.00000000	         -0.00000000	         -0.29752407	          0.01013302	         -0.31103323	          0.00000000	          0.00000000	          0.00000000	          0.00000000	         -0.00000000	         -0.00000000	         -0.30509217	          0.00963745	         -0.38772414	          0.00000000	          0.00000000	          0.00000000	          0.00000000	         -0.00000000	         -0.00000000	         -0.34880657	          0.03402056	         -0.37242906	          0.00000000	          0.00000000	          0.00000000	         10.16794720	        143.50117566	          0.59556565	         -0.23593203	         -0.01008475	         -0.31347385	          0.00000000	          0.00000000	          0.00000000	        -15.31775460	         51.34964522	          1.54432688	         -0.23380160	         -0.00364877	         -0.38961430	          0.00000000	          0.00000000	          0.00000000	
